<svg xmlns="http://www.w3.org/2000/svg" width="585" height="598" viewBox="0 0 585 598">
    <defs>
        <linearGradient id="a" x1=".002%" x2="99.999%" y1="50.01%" y2="50.01%">
            <stop offset="0%" stop-color="#F8ED4D"/>
            <stop offset="6%" stop-color="#FBDF39"/>
            <stop offset="13%" stop-color="#FDD226"/>
            <stop offset="20%" stop-color="#FFCA1B"/>
            <stop offset="28%" stop-color="#FFC717"/>
            <stop offset="51%" stop-color="#F6933F"/>
            <stop offset="74%" stop-color="#F2703B"/>
            <stop offset="100%" stop-color="#E23075"/>
        </linearGradient>
        <linearGradient id="b" x1="0%" x2="284.026%" y1="49.905%" y2="49.905%">
            <stop offset="0%" stop-color="#F8ED4D"/>
            <stop offset="6%" stop-color="#FBDF39"/>
            <stop offset="13%" stop-color="#FDD226"/>
            <stop offset="20%" stop-color="#FFCA1B"/>
            <stop offset="28%" stop-color="#FFC717"/>
            <stop offset="51%" stop-color="#F6933F"/>
            <stop offset="74%" stop-color="#F2703B"/>
            <stop offset="100%" stop-color="#E23075"/>
        </linearGradient>
    </defs>
    <g fill="none" fill-rule="evenodd">
        <ellipse cx="193.04" cy="188.32" fill="#FAFAFA" fill-rule="nonzero" rx="193.04" ry="188.32"/>
        <ellipse cx="316.28" cy="334.62" fill="#FAFAFA" fill-rule="nonzero" rx="268.23" ry="261.67"/>
        <path d="M160.07 372.86s31.5 24.3 74.7 0c0 0 31.5 24.3 74.7 0 0 0 31.5 24.3 74.7 0 0 0 31.5 24.3 74.7 0 0 0 31.5 24.3 74.7 0 0 0 18.94 14.6 47.58 9.84a257 257 0 0 0 4.2-46.37c0-144.52-120.09-261.67-268.23-261.67-148.14 0-268.23 117.16-268.23 261.67a256.92 256.92 0 0 0 4.33 47c9.6-.9 20.45-3.91 32.16-10.5-.01.03 31.49 24.33 74.69.03z"/>
        <path fill="#C8E6E6" fill-rule="nonzero" d="M317.12 598c131.92 0 241.6-92.9 264-215.3-28.64 4.76-47.58-9.84-47.58-9.84-43.2 24.3-74.7 0-74.7 0-43.2 24.3-74.7 0-74.7 0-43.2 24.3-74.7 0-74.7 0-43.2 24.3-74.7 0-74.7 0-43.2 24.3-74.7 0-74.7 0-43.2 24.3-74.7 0-74.7 0-11.71 6.59-22.56 9.6-32.16 10.5C75.92 505.43 185.44 598 317.12 598z"/>
        <path fill="#FFF" fill-rule="nonzero" d="M164.4 403.4h88.42s-5.4-26.7-12.9-36.3c-7.5-9.6-22.5-21.3-39.3-20.7-16.8.6-26.1 3-30.3 10.5 0 0-3.3-20.1 5.4-30 0 0 .15-7.05 4.05-7.95a11.44 11.44 0 0 1 6.45.15l3.75-5.55s5.1-13.35 15.45-19.05l6.15-3.15s0-4.35 3.45-3.9a6.21 6.21 0 0 1 4.65 2.55h3.45s2.7-10.35 7.2-14.4c0 0-1-5.1 2.25-5.25a5.63 5.63 0 0 1 4.8 1.95l7.8-1.95s1.2-2.25 2.7-.9c1.5 1.35 2.55 2.4 2.55 2.4l2.4.45 9.6-1.35s1.35-4.65 3.9-3.15c2.55 1.5 1.8 4.95 1.8 4.95l2.1.3s.3-3 2.7-1.65c2.4 1.35.45 4.05.45 4.05s5.85 6.3 7.2 13.65l4.8.3s2.4-4.5 5.7-3.3c3.3 1.2 3.3 5.55 3.3 5.55s12 5.25 16.95 20.25c0 0 7.95 0 6.75 8.7 0 0 14.25 5.55 12.75 34.35 0 0-9.15-14.25-41.1-8.4-31.95 5.85-38.85 51.75-35.55 56.1l133.65-.15s37.65-5.1 42-54c0 0-21.75-1.2-26.1-11.55-4.35-10.35-2.4-54.15-2.4-54.15s34.35-1.2 38.1 25.2c0 0 4.35-24.6 39.9-25.5v49.35s-.6 14.85-22.8 16.35c0 0 4.8 39.9-5.25 73.5S425 480.8 397 500.45c-28 19.65-41.7 20.1-41.85 20.55-.15.45-.6 28.35-.6 28.35s-33.45.45-47.4-23.7c0 0-37.5-2.85-69.3-19.5-31.8-16.65-67.85-53.77-73.45-102.75z"/>
        <path stroke="#666" stroke-width="2.07" d="M309.17 525.78c-82.39-9.23-114.69-48.12-131.16-79.09-16.47-30.97-13.84-44.16-13.84-44.16h223.42c38.23-6.59 43.07-52.14 42.41-54.77 0 0-29 2-29-21.68v-43.5s38.23-.88 38.23 29c0 0 2.2-29 40.43-29v46.58S481 348 455.06 348"/>
        <path stroke="#666" stroke-width="2.07" d="M164.17 402.52s18 1.76 34.27 26.36c16.27 24.6 33.39 56.24 60.2 51.85 26.81-4.39 25.93-18 25.93-18l18.67-.22v48.12s-2 34.27 51.41 38.89v-57.36s.66-30.32-36.25-29.66h64.15s40.43-.66 57.12-42.84c0 0 11.86-22 16.48-73.16 15.16 147.42-101.5 174.66-101.5 174.66"/>
        <rect width="16.11" height="16.11" x="246.65" y="451.1" fill="#666" fill-rule="nonzero" rx=".34"/>
        <path fill="#DBD7D7" fill-rule="nonzero" stroke="#666" stroke-width="2.07" d="M190.59 313.26a4.62 4.62 0 0 1 2.24-.6 4.67 4.67 0 0 1 4.25 2.75 58.78 58.78 0 0 1 9-.86 9.21 9.21 0 0 1 16.47 1.19 57.77 57.77 0 0 1 6.88 1.65 1.92 1.92 0 0 1 3 1 34.13 34.13 0 0 1 12.69 8.08c.2-.07.409-.108.62-.11a1.94 1.94 0 0 1 1.94 1.94 1.92 1.92 0 0 1-.24.92 26.2 26.2 0 0 1 4.84 11.78v-25.54s-2.59-24.54-31-25.34h-2.38a3.65 3.65 0 1 0-7.2 1.18c-11.75 3.53-17.98 13.95-21.11 21.96zm16.25-13.89a1.94 1.94 0 1 1-1.94 1.94 1.94 1.94 0 0 1 1.94-1.95v.01zm-.25 7.74a4.67 4.67 0 1 1-9.34 0 4.67 4.67 0 0 1 9.34 0z"/>
        <circle cx="209.24" cy="284.51" r="1.39" fill="#DBD7D7" fill-rule="nonzero" stroke="#666" stroke-width="2.07"/>
        <path stroke="#666" stroke-width="2.07" d="M249 270.95a1.74 1.74 0 0 0 0-.19 1.76 1.76 0 0 0-3.51-.22 22.06 22.06 0 0 0-9.11 1.36 3.4 3.4 0 1 0-5.77 3.59c-3.25 3-6 7.61-7.64 14.71 26.8 1.67 29.12 25.25 29.12 25.25v-42.78a5.89 5.89 0 0 0-3.09-1.72z"/>
        <circle cx="240.79" cy="266.09" r="1.64" stroke="#666" stroke-width="2.07"/>
        <circle cx="228.8" cy="264.19" r="1.77" stroke="#666" stroke-width="2.07"/>
        <circle cx="221.86" cy="271.14" r="1.89" stroke="#666" stroke-width="2.07"/>
        <path stroke="#666" stroke-width="2.07" d="M252.49 344.12a25.15 25.15 0 0 0-5.07-14.89 1.92 1.92 0 0 0 .24-.92 1.94 1.94 0 0 0-1.94-1.94 1.92 1.92 0 0 0-.62.11 34.13 34.13 0 0 0-12.69-8.08 1.92 1.92 0 0 0-3-1 57.77 57.77 0 0 0-6.88-1.65 9.21 9.21 0 0 0-16.47-1.19 58.78 58.78 0 0 0-9 .86 4.66 4.66 0 0 0-8.87 2.57c-1 .43-2 .89-2.86 1.38a5.92 5.92 0 0 0-8.66 7.15c-10.33 12.78-6.58 31.2-6.58 31.2 4.8-6.4 9.6-11.2 30.39-11.2 39.92 0 49.84 40.37 52.14 55.09-.67-15.12-.13-57.49-.13-57.49z"/>
        <circle cx="201.92" cy="307.11" r="4.67" stroke="#666" stroke-width="2.07"/>
        <circle cx="206.84" cy="301.3" r="1.94" stroke="#666" stroke-width="2.07"/>
        <circle cx="188.79" cy="303.7" r="3.41" stroke="#666" stroke-width="2.07"/>
        <circle cx="179.7" cy="295.37" r="1.64" stroke="#666" stroke-width="2.07"/>
        <path stroke="#666" stroke-width="2.07" d="M294.27 291.51a4.414 4.414 0 0 0-8.51-2.35 32.55 32.55 0 0 0-3.74-.22c-27.91 0-30.1 25.56-30.1 25.56v26.65c2.43-10.21 9.52-26.46 43-26.46 7.61 0 13.64 1.23 18.43 3.26-1.42-5.88-6.17-20.51-19.08-26.44z"/>
        <path fill="#DBD7D7" fill-rule="nonzero" stroke="#666" stroke-width="2.07" d="M273 275.2a2.14 2.14 0 1 0-2.75-2v.17a17 17 0 0 0-2.71-1.19 3 3 0 1 0-5.23-1 26.46 26.46 0 0 0-10.16 1.52v40.51s3-22.57 28.33-24.14c-1.57-6.84-4.32-11.17-7.48-13.87z"/>
        <circle cx="272.6" cy="265.07" r="1.64" fill="#DBD7D7" fill-rule="nonzero" stroke="#666" stroke-width="2.07"/>
        <circle cx="279.54" cy="262.42" r="1.26" fill="#DBD7D7" fill-rule="nonzero" stroke="#666" stroke-width="2.07"/>
        <path fill="#DBD7D7" fill-rule="nonzero" stroke="#666" stroke-width="2.07" d="M318 320.41a5.81 5.81 0 0 0-10.75-4.41 54.34 54.34 0 0 0-12.35-1.3c-2.14 0-4.17.07-6.1.2a6.43 6.43 0 0 0-12.22 1.87c-25.13 6.47-24.08 26-24.08 26s-.27 58.68.1 58.68c0 0 2.9-56.41 49.11-56.41 19.69 0 24.23 4.54 28.77 10.6 0-.06 4.88-23.99-12.48-35.23z"/>
        <circle cx="296.58" cy="304.83" r="5.43" fill="#DBD7D7" fill-rule="nonzero" stroke="#666" stroke-width="2.07"/>
        <circle cx="324.6" cy="317.83" r="2.65" fill="#DBD7D7" fill-rule="nonzero" stroke="#666" stroke-width="2.07"/>
        <circle cx="317.79" cy="309.5" r="2.15" fill="#DBD7D7" fill-rule="nonzero" stroke="#666" stroke-width="2.07"/>
        <circle cx="313.75" cy="300.67" r="1.89" fill="#DBD7D7" fill-rule="nonzero" stroke="#666" stroke-width="2.07"/>
        <rect width="51.53" height="20.92" x="179.31" y="40.74" fill="#DBD7D7" fill-rule="nonzero" rx="10.46"/>
        <rect width="32.85" height="9.22" x="168.29" y="52.44" fill="#DBD7D7" fill-rule="nonzero" rx="4.61"/>
        <rect width="51.53" height="20.92" x="487.55" y="77.28" fill="#DBD7D7" fill-rule="nonzero" rx="10.46"/>
        <rect width="32.85" height="9.23" x="471.02" y="101.47" fill="#DBD7D7" fill-rule="nonzero" rx="4.61"/>
        <rect width="28.35" height="9" x="185.84" y="66.16" fill="#DBD7D7" fill-rule="nonzero" rx="4.5"/>
        <rect width="48.77" height="12.15" x="116.77" y="88.31" fill="#DBD7D7" fill-rule="nonzero" rx="6.07"/>
        <rect width="34.88" height="7.65" x="124.64" y="106.98" fill="#DBD7D7" fill-rule="nonzero" rx="3.82"/>
        <path fill="#DBD7D7" fill-rule="nonzero" d="M140.62 107.43s4.5 0 4.5-3.49-4.5-4-4.5-4h13.73s-4.5.56-4.5 4 4.5 3.49 4.5 3.49h-13.73z"/>
        <path fill="url(#a)" fill-rule="nonzero" d="M465.5 257.35c8.78 3.68 5.09 17.74-20.13 21.89-25.22 4.15-250.8-4.59-250.8-4.59s-37.76-2.79-52.2-21.07c-5.59-7.08-.72-8.66 7.59-6.91 14.48 3 4.06 2.5 50.76 3.73 9.69.25 258.18 4.19 264.78 6.95z"/>
        <path fill="url(#b)" fill-rule="nonzero" d="M441.59 264.24S459 248.19 464.24 249c5.24.81-2.33 16-2.33 16l-20.32-.76z"/>
        <path fill="#FAFAFA" fill-rule="nonzero" d="M247.87 226.57c-.69 7.3 0 23.82 0 23.82-3.17-1.51-12.81-3.72-17.9-.83-5.09 2.89-1.51 5.51-1.51 5.51a2.42 2.42 0 0 0 .41 3.86c-2.2 2.07.28 3.86.28 3.86-3 3 1 3.86 2.75 3.86s20.24-1.79 24.37-2.34c4.13-.55 5-5.23 4.54-8.81-.46-3.58-1.1-18.18-1.1-18.18l.41-11.29"/>
        <path fill="#FFF" fill-rule="nonzero" d="M463.65 77.3c-1.35-2.47-8.1 5.4-8.1 5.4s3.6-12.6 1.35-14.62c-2.25-2.02-8.1 11.92-8.1 11.92s-1.12-15.53-3.6-16.43c-2.48-.9-3.6 18.43-3.6 19.36 0 .93-4.73-14.4-8.33-14.17-3.6.23 1.8 20.24 1.8 20.24s-9-3.6-11-.45 13.5 7.88 13.5 7.88c2.25 3.6 3.6 13.27 3.6 13.27s-1.12 12.15-15.3 14.4-24.3-16.65-24.3-16.65.22-8.32-6.53-20.7c-6.75-12.38-27-13.5-27-13.5l-1.35-5.85 3.15-9.67a12.37 12.37 0 0 0 4.28-1.57c1.57-1.12 4-2.48 5.17-9S375 40.4 375 40.4s2.48-3.6 1.8-13.5c-.68-9.9-11.48-13-23.62-14.85C341.04 10.2 337 4.4 337 4.4s-.9 2.7-3.37 8.78c-2.47 6.08 2.7 15.3 2.7 15.3a11.11 11.11 0 0 0-7 6.3c-2.25 5.17 4.5 10.57 4.5 10.57a97.84 97.84 0 0 0-2 16c-.23 7.88 13.05 13.5 13.05 13.5-5.4-.45-13.5 5.4-13.5 5.4s-14.4 20-34.43 17.1c-20.03-2.9-12.6-28.12-12.6-28.12l7.65-2s11-2.25 11.25-5-10.8-2-10.8-2c5.63-12.6 5.18-18.67 4.05-19.35-1.13-.68-9.5 10.55-9.5 10.55l.45-6.3s0-10.8-1.58-12.15c-1.58-1.35-5.4 17.1-5.4 17.1s-4.05-13.5-7-13.73c-2.95-.23.45 16.43.45 16.43L268.57 46s-2.7-2.7-3.82-.45c-1.12 2.25 8.1 21.45 8.1 21.45s-.68 13.72 3.6 25.88c4.28 12.16 16.43 14.85 25.88 15.3 9.45.45 24.53-10.35 24.53-10.35S330 109 332.7 114.2a10.62 10.62 0 0 1 .68 9.23l-3.15 12.15a83.57 83.57 0 0 0-50.4 15.53s-9.45-11.93-11-13.72c-1.55-1.79-6.07-1.58-6.07-1.58s-20 14.63-21.6 17.33c-1.6 2.7 2.25 4.95 2.25 4.95l2.7 3.15a29.22 29.22 0 0 1 3.38 3.6c1.35 1.8 5.63.45 7.65-1.12 2.02-1.57 9.22-10.8 9.22-10.8l5.1 5.7s-10.8 12.6-18.3 35.1-5.4 57-5.4 57a69.45 69.45 0 0 1-9.3-1.8c-4.2-1.2-8.4 1.2-8.4 1.2-4.58 2.7-1.73 9-1.73 9s-.23 5.85.45 7.43 14.85-.23 20-.9 11.25-2 11.92-5.17c.67-3.17-1.35-18.48-1.35-18.48s1.8-27.9 6.3-44.33 16-29.25 16-29.25l25.88 19.35s19.8 9.9 27.23 11.47c7.43 1.57 13.95 2.25 24.07-6.75 10.12-9 8.1-40.28 8.1-40.28s4.5-4.72 6.3-6.75c1.8-2.03 7-18.67 7-18.67 9.68-1.58 13.5-11 13.5-11s4.5 12.15 21.82 17.77c17.32 5.62 27-6.52 31.5-12.37s6.07-23.85 6.07-23.85a48.08 48.08 0 0 1 5.18-7.2c2.65-2.94 6.7-10.36 5.35-12.84zM348 181.93c-8.55 8.33-22.05 7.65-57.82-22.72 0 0 20.7-14.4 48.15-11.47l13.5 5.63s4.72 20.23-3.83 28.56z"/>
        <path stroke="#666" stroke-width="2.07" d="M375.7 39s8-22.28-12.72-24.7C343.5 12 337.3 4 337.3 4s-9.94 18.12 1.09 24.66c0 0 9.53 5.87 19.09 4.9.01-.01 18.26 5.26 18.22 5.44z"/>
        <rect width="3.89" height="4.08" x="358.485" y="45.951" fill="#666" fill-rule="nonzero" rx=".44" transform="rotate(-163.37 360.43 47.99)"/>
        <rect width="3.89" height="4.08" x="344.128" y="41.675" fill="#666" fill-rule="nonzero" rx=".44" transform="rotate(-163.37 346.073 43.715)"/>
        <path stroke="#666" stroke-width="2.07" d="M339.09 29.06s-7.59-2.47-10.09 5.82c-2.5 8.29 5.18 10.17 5.18 10.17M370.75 56.57c4.54.44 7.93-1.86 9.16-8 1.53-7.55-4.62-9-4.62-9"/>
        <path fill="#666" fill-rule="nonzero" d="M355.83 58.61l-12.3-3.67s0 6.48 4.68 7.89c4.68 1.41 7.62-4.22 7.62-4.22z"/>
        <path stroke="#666" stroke-width="2.07" d="M375.33 39.61l-6.93 23.21S363.62 80.68 344.73 75s-12-24.15-12-24.15l5.79-22.46"/>
        <path stroke="#666" stroke-width="2.07" d="M346.92 75.42a17.36 17.36 0 0 0-14.53 4s-9 7.77-12.32 10.45c0 0-17.86 14.51-29.6 4.95-14.13-11.5-4.85-26-4.85-26s18.91-2.72 17.55-6.65c-1.36-3.93-11.22-1.49-11.22-1.49s8-17.87 5.17-19.88C294.29 38.79 287 53.35 287 53.35s2.8-20.07-1-19.9c-3.8.17-5.8 18.88-5.8 18.88s-3.2-17.44-6.71-16.18c-3.51 1.26 0 17.43 0 17.43s-6.08-12.07-8.46-9.15c-2.38 2.92 4.34 14.43 4.34 14.43a63.44 63.44 0 0 1 4 8.32s-3.79 17.6 6.39 30.59c10.18 12.99 28.26 12.4 40.88 3.86l7.14-4s-.91 5.21 4.59 15.46c0 0 3.9 5.3-.54 14.46M366.82 66.8l1.4 7.42s19.12-1.68 28.71 15.49c4.41 7.88 4 14.84 4.74 17.57 0 0 13.51 26.29 31.46 13.65 15.28-10.76 4.43-24.25 4.43-24.25S422.1 92.67 424 89c1.9-3.67 11.32.25 11.32.25s-5.12-18.89-2.02-20.45c3.1-1.56 8 14 8 14s.31-20.26 4.08-19.51 2.84 19.54 2.84 19.54 5.78-16.75 9.11-15c3.33 1.75-2.71 17.22-2.71 17.22s7.86-11 9.76-7.75c1.9 3.25-6.5 13.6-6.5 13.6a68.44 68.44 0 0 0-5.22 7.61s1 18-11 29.25-35.07 9.31-47.5-11.24c0 0-3.53 6.91-14.38 10.62 0 0-2.68 15-7.68 19.67"/>
        <path fill="#DBD7D7" fill-rule="nonzero" stroke="#666" stroke-width="2.07" d="M332.07 127l41 19s-10.13 14.73-31.4 3.39c-15.56-8.29-9.6-22.39-9.6-22.39z"/>
        <path stroke="#666" stroke-width="2.07" d="M290.19 160c11.37-8.33 26.9-13.34 48-12.4M261 256.23s-8.31-56.82 20.38-88.29M271.8 158.73c-14.87 16.27-26.58 45.27-23.86 91.8 0 0-3.83-2.49-11.42-2.2M331.18 135.8s-27.76-2.36-50.87 14.87M344 31.36c1.07.75-5.63-4.27-4.65-15M353.75 33.41S347.37 30 348.1 20"/>
        <path stroke="#666" stroke-width="2.07" d="M352.71 153.82s6.44 47.65-29.85 28.34-54.45-44.07-54.45-44.07-2.69-4.35-6.27-2c-3.58 2.35-18.84 14.82-20.51 17-1.67 2.18-.74 4.85 6.21 2.73M243.65 156.43s-1.41 3.67 5.06 3M246.07 159.44s-1.41 3.67 5.06 3"/>
        <path stroke="#666" stroke-width="2.07" d="M248.47 162.64s-1.41 3.67 5.06 3a15.92 15.92 0 0 0 5.39-3.94c2.27-2.66 7.14-9.66 7.14-9.66s34.44 40.95 69.88 47.11c34.27 6 32.08-38 30.33-47.36M261 256.23c.69 6.85-4.24 8.06-4.24 8.06-4.23.71-23.82 2.69-26.51 2.34-2.69-.35-3.93-2.93 2.51-6.3M229.37 262.82s-3.58-1.62 1.48-5.7M229 259s-3.58-1.62 1.48-5.7"/>
        <path stroke="#666" stroke-width="2.07" d="M228.44 255s-3.58-1.62 1.48-5.7a15.92 15.92 0 0 1 6.6-1"/>
    </g>
</svg>
