<svg xmlns="http://www.w3.org/2000/svg" width="66" height="64" viewBox="0 0 66 64">
    <g fill="#EE2D22" fill-rule="nonzero">
        <path d="M39.624 52H29.161v-6.976h-7.019v-10.4h7.027v-6.968h10.463v6.984h7.05v10.4h-7.058V52zm-7.719-2.72h4.983v-6.976h7.026V37.36h-7.026V30.4h-4.983v6.96H24.88v4.944h7.026v6.976z"/>
        <path d="M62.732 14.976h-.467v-4.688c0-1.59-1.297-2.88-2.897-2.88h-5.441V2.136c0-.684-.33-1.326-.886-1.728-.56-.4-1.28-.505-1.931-.28l-21.49 7.28H8.757C3.945 7.412.045 11.288.04 16.072V54.92c.005 4.783 3.905 8.66 8.717 8.664h53.975c1.6 0 2.898-1.29 2.898-2.88V17.848a2.889 2.889 0 0 0-2.898-2.872zm-3.364-4.848a.16.16 0 0 1 .16.16v4.688h-5.601v-4.848h5.44zm-8.17-7.16v12H15.784l35.414-12zm-42.44 7.2h12.877L5.7 15.512a8.805 8.805 0 0 0-2.93 1.824v-1.28c.013-3.278 2.69-5.928 5.988-5.928v.04zm54.135 50.536a.16.16 0 0 1-.16.16H8.756c-3.3-.004-5.976-2.663-5.98-5.944V23.64c.004-3.281 2.68-5.94 5.98-5.944h53.975a.16.16 0 0 1 .161.152v42.856z"/>
    </g>
</svg>
