<svg xmlns="http://www.w3.org/2000/svg" width="40" height="42" viewBox="0 0 40 42">
    <g fill="none" fill-rule="evenodd" stroke="#5F6A88" stroke-width="2.5">
        <path stroke-linecap="round" stroke-linejoin="round" d="M23.552 30.989c0 .615-.585 1.063-.933 1.277-.71.434-1.71.683-2.743.683-1.034 0-2.034-.249-2.743-.683-.349-.214-.933-.662-.933-1.277v-5.934c0-.614.584-1.063.933-1.277.71-.434 1.71-.684 2.743-.684 1.035 0 2.034.25 2.743.684.348.214.933.663.933 1.277v5.934zM11.02 19.962c-2.785 0-4.197-1.094-4.197-3.25 0-1.58 1.797-3.251 3.495-3.251 3.743 0 6.463 2.045 7.68 3.173-1.658 1.321-4.672 3.328-6.979 3.328zM21.753 16.635c1.217-1.129 3.937-3.174 7.681-3.174 1.698 0 3.494 1.67 3.494 3.25 0 2.158-1.41 3.25-4.195 3.25-2.308 0-5.321-2.006-6.98-3.326z"/>
        <path stroke-linecap="square" d="M30.316 40.641h7.149l-2.392-4.273 2.117-19.785C34.842 1.553 20.616 1.297 20.616 1.297h-1.48S4.91 1.554 2.562 16.583L4.68 36.368l-2.391 4.273H30.316z"/>
    </g>
</svg>
