<svg xmlns="http://www.w3.org/2000/svg" width="35" height="47" viewBox="0 0 35 47">
    <g fill="none" fill-rule="evenodd" stroke="#5F6A88" stroke-linecap="round" stroke-linejoin="round" stroke-width="2.5">
        <path d="M15.88 32.922h2.725s2.725 0 2.725 2.636c0 2.637-2.461 2.637-2.461 2.637H3.752s-2.461.44-2.461-2.637v-2.812s-.285-3.348 2.255-7.031c3.516-5.098 12.364-7.207 12.364-7.207h5.274c3.983 0 12.07 2.9 12.07 9.404v17.754M11.457 20.441l5.918 17.49M9.289 38.195v7.207M26.296 9.147a7.867 7.867 0 1 1-15.733 0 7.867 7.867 0 0 1 15.733 0zM11.021 11.362l14.206-5.575"/>
    </g>
</svg>
