<svg xmlns="http://www.w3.org/2000/svg" width="63" height="36" viewBox="0 0 63 36">
    <g fill="none" fill-rule="evenodd" stroke="#5F6A88" stroke-linecap="round" stroke-linejoin="round" stroke-width="2.5">
        <path d="M23.805 28.671c-1.347 0-2.442-1.074-2.442-2.396v-3.993h-1.565c-1.346 0-2.442-1.074-2.442-2.396v-4.175c0-1.32 1.096-2.396 2.442-2.396s2.441 1.075 2.441 2.396v1.78h1.566c1.346 0 2.442 1.074 2.442 2.395v6.389c0 1.322-1.096 2.396-2.442 2.396zM18.973 10.082a2.427 2.427 0 0 1-2.425-2.424 2.427 2.427 0 0 1 2.425-2.425 2.427 2.427 0 0 1 2.424 2.425 2.427 2.427 0 0 1-2.424 2.424zM18.164 29.075a5.253 5.253 0 1 1-10.506 0 5.253 5.253 0 0 1 10.506 0zM55.342 29.075a5.253 5.253 0 1 1-10.506 0 5.253 5.253 0 0 1 10.506 0zM17.356 31.276l28.288-.18"/>
        <path d="M54.374 31.096h4.132S61 31.024 61 29.175v-8.821s-.926-5.834-6.769-5.834c0 0-4.276-.07-6.484-2.276-2.21-2.206-7.411-7.328-7.411-7.328S37.129 2 31.5 2H20.028s-9.763.355-12.043 12.378H4.778S2 14.378 2 18.575v10.173s.285 2.063 2.066 2.348h3.416M30.288 14.932h22.63M61 22.164s-6.05 1.033-7.274-7.232M30.288 2.808v28.288M7.658 14.932v11.315"/>
    </g>
</svg>
