<svg xmlns="http://www.w3.org/2000/svg" width="61" height="35" viewBox="0 0 61 35">
    <g fill="none" fill-rule="evenodd" stroke="#5F6A88" stroke-linecap="round" stroke-linejoin="round" stroke-width="2">
        <path d="M16.649 28.178c0 2.8-2.248 5.07-5.022 5.07s-5.022-2.27-5.022-5.07c0-2.8 2.248-5.07 5.022-5.07s5.022 2.27 5.022 5.07zM53.103 28.178c0 2.8-2.248 5.07-5.022 5.07s-5.023-2.27-5.023-5.07c0-2.8 2.249-5.07 5.023-5.07 2.774 0 5.022 2.27 5.022 5.07zM16.12 30.52l27.433-.18"/>
        <path d="M52.963 30.34h4.074s2.457-.07 2.457-1.914v-8.792s-.913-5.815-6.672-5.815c0 0-4.214-.07-6.392-2.268a2206.226 2206.226 0 0 0-7.304-7.304s-3.16-2.906-8.71-2.906H19.108s-9.623.354-11.87 12.337H4.075s-2.739 0-2.739 4.183v10.14s.282 2.057 2.037 2.34h3.367M6.184 13.749h45.093M59.143 20.84s-5.9.993-7.094-6.95M21.074 1.766v11.7"/>
    </g>
</svg>
