<svg xmlns="http://www.w3.org/2000/svg" width="65" height="65" viewBox="0 0 65 65">
    <path fill="#EE2D22" fill-rule="nonzero" d="M33.647 60.242c0 .51-.34.85-.765.934-.764.085-1.444.085-2.209.085-.765 0-1.444 0-2.209-.085-.51 0-.85-.424-.765-.934 0-.51.425-.85.935-.765.68.085 1.36.085 2.04.085.679 0 1.359 0 2.038-.085.425-.085.85.255.935.765zm24.47-44.098c.425.085.935.17 1.445.255v1.36c0 .509.34.849.85.849s.85-.34.85-.85v-2.124c0-.425-.34-.765-.765-.85l-2.04-.255c-.424-.085-.934.255-1.02.68-.084.425.256.85.68.935zM47.328 5.778c-.425.085-.765.595-.68 1.02.34 1.274.85 2.548 1.614 3.653.17.255.425.34.68.34.17 0 .34-.085.51-.17.425-.255.51-.765.255-1.19-.595-.934-1.105-1.954-1.36-3.058-.17-.34-.594-.68-1.02-.595zm7.137 9.346c.085 0 .17.085.34.085.34 0 .68-.17.765-.51.17-.424-.085-.934-.51-1.104-1.105-.425-2.124-1.02-3.059-1.615-.34-.255-.935-.17-1.19.17-.254.34-.17.935.17 1.19 1.02.68 2.21 1.274 3.484 1.784zM45.542 1.7h1.105c-.085.425-.085.765-.17 1.19-.085.425.255.85.765.935h.085c.425 0 .765-.34.85-.765.084-.68.17-1.275.34-1.954.084-.255 0-.51-.17-.765s-.425-.34-.68-.34h-2.125c-.51 0-.85.34-.85.85s.34.85.85.85zm-25.065 0h4.164c.51 0 .85-.34.85-.85S25.15 0 24.64 0h-4.164c-.51 0-.85.34-.85.85s.425.85.85.85zm16.739 0h4.163c.51 0 .85-.34.85-.85S41.889 0 41.379 0h-4.163c-.51 0-.85.34-.85.85s.34.85.85.85zm-8.412 0h4.163c.51 0 .85-.34.85-.85S33.477 0 32.967 0h-4.163c-.51 0-.85.34-.85.85s.425.85.85.85zM14.359 3.824c.51 0 .85-.425.85-.85s0-.85-.085-1.275h1.19c.51 0 .85-.34.85-.85S16.823 0 16.313 0H14.19c-.255 0-.51.085-.595.255a.66.66 0 0 0-.17.68c.085.68.085 1.36.17 2.039-.085.51.34.85.764.85zm-2.039 7.222c.17.085.255.085.425.085.255 0 .595-.17.765-.425.68-1.105 1.104-2.38 1.444-3.824.085-.424-.17-.934-.68-1.02-.424-.084-.934.17-1.02.68a13.95 13.95 0 0 1-1.189 3.314c-.34.425-.17 1.02.255 1.19zm-5.523 4.588h.255c1.36-.425 2.634-1.02 3.654-1.784.34-.255.425-.85.17-1.19-.255-.34-.85-.425-1.19-.17-.85.68-1.954 1.19-3.144 1.53-.424.17-.68.594-.594 1.02.17.34.51.594.85.594zM.935 18.268c.51 0 .85-.34.85-.85v-1.19h1.274c.51 0 .85-.424.85-.849 0-.51-.425-.85-.85-.85h-2.04c-.254 0-.424.085-.68.255a.918.918 0 0 0-.254.595v2.04c0 .51.34.849.85.849zm15.379 37.386c-1.275-.68-2.464-1.53-3.569-2.38-.34-.254-.935-.254-1.19.17-.254.34-.254.935.17 1.19a29.912 29.912 0 0 0 3.824 2.549c.17.085.255.085.425.085.255 0 .595-.17.765-.425.085-.51 0-1.02-.425-1.19zm-9.602-8.667c-.254-.425-.764-.51-1.19-.17-.424.255-.509.765-.17 1.19.85 1.19 1.87 2.379 2.89 3.483.17.17.425.255.595.255.17 0 .424-.085.594-.255.34-.34.34-.85 0-1.19a35.33 35.33 0 0 1-2.719-3.313zm17.589 11.81c-1.36-.34-2.804-.764-4.079-1.274-.425-.17-.934 0-1.104.51-.17.425 0 .934.51 1.104 1.444.595 2.888 1.02 4.333 1.36h.17c.425 0 .764-.255.85-.68a.881.881 0 0 0-.68-1.02zM1.954 35.092a23.177 23.177 0 0 1-.255-3.484v-.85c0-.51-.34-.85-.85-.85s-.849.34-.849.85v.85c0 1.274.085 2.464.255 3.653.085.425.425.765.85.765h.085c.51 0 .85-.425.764-.934zM.934 27.19c.51 0 .85-.34.85-.85v-4.418c0-.51-.34-.85-.85-.85s-.849.34-.849.85v4.418c0 .51.34.85.85.85zM2.89 39.34c-.17-.425-.595-.68-1.105-.595-.425.17-.68.595-.594 1.105.424 1.444 1.02 2.889 1.699 4.248.17.34.425.51.765.51.085 0 .254 0 .34-.085.424-.17.594-.68.34-1.105-.426-1.444-1.02-2.719-1.445-4.078zm32.033 3.993v-8.496h8.496V26.34h-8.496v-8.497h-8.497v8.497h-8.497v8.497h8.497v8.496h8.497zm26.34-21.157c0-.51-.34-.85-.85-.85s-.85.34-.85.85v4.419c0 .51.34.85.85.85s.85-.34.85-.85v-4.419zM36.28 59.817c.085.425.425.68.85.68h.17c.17 0 .255-.085.424-.085-.34-.51-.594-1.02-.85-1.53-.424.085-.679.51-.594.935zm24.13-29.654c-.509 0-.849.34-.849.85v.595c0 1.19-.085 2.464-.255 3.653-.085.425.255.935.68.935h.085c.425 0 .765-.34.85-.765.17-1.274.254-2.634.254-3.908v-.51c.085-.425-.34-.85-.764-.85zM30.674 54.38c-12.66 0-23.79-10.706-23.79-22.941V20.732c7.052-.85 12.66-6.627 13.34-13.85h20.901c.68 7.223 6.288 13.085 13.34 13.85v10.79c0 1.36-.17 2.635-.425 3.91 1.105.17 2.21.51 3.314.934.34-1.614.51-3.229.51-4.928v-14.02h-1.7c-6.457 0-11.725-5.353-11.725-11.98v-2.04H16.824v2.04c0 6.627-5.268 11.98-11.726 11.98h-1.7v14.105c0 14.274 12.49 26.34 27.19 26.34 1.87 0 3.739-.17 5.438-.595a13.606 13.606 0 0 1-.934-3.314 24.36 24.36 0 0 1-4.419.425zm34.072-3.059c0 7.562-6.118 13.68-13.68 13.68-7.562 0-13.68-6.118-13.68-13.68 0-7.562 6.118-13.68 13.68-13.68 7.562 0 13.68 6.118 13.68 13.68zm-2.549 0c0-6.117-5.013-11.13-11.13-11.13-6.118 0-11.131 5.013-11.131 11.13 0 6.118 5.013 11.131 11.13 11.131 6.118 0 11.131-5.013 11.131-11.13zM55.4 46.647l-6.628 6.628-1.954-1.955a1.232 1.232 0 0 0-1.784 0c-.51.51-.51 1.275 0 1.785l2.804 2.803c.255.255.594.34.934.34.34 0 .68-.085.935-.34l7.477-7.477c.51-.51.51-1.274 0-1.784a1.232 1.232 0 0 0-1.784 0z"/>
</svg>
