<svg xmlns="http://www.w3.org/2000/svg" width="38" height="38" viewBox="0 0 38 38">
    <g fill="none" fill-rule="evenodd" stroke="#5F6A88" stroke-linecap="square" stroke-width="2">
        <path d="M16.955 27L17 33.466 15.351 35 13 30.199M11 21l-6.482.084L3 22.606 7.695 25M25 7.426l-8.694-1.203 1.167-1.1a.842.842 0 0 0 0-1.242l-.663-.624a.974.974 0 0 0-1.32 0L12.877 5.72 3.653 4.364 2 5.921 17.819 14M30.613 14l1.167 7.858 1.098-1.153a.847.847 0 0 1 1.24 0l.625.655a.955.955 0 0 1 0 1.304l-2.46 2.584 1.354 9.118L32.081 36 24 20.31"/>
        <path d="M11.415 31L7 26.584 29.285 2.727a5.379 5.379 0 0 1 3.86-1.707L34.608 1A2.36 2.36 0 0 1 37 3.392l-.02 1.463a5.384 5.384 0 0 1-1.708 3.86L11.415 31zM12 26l-4 4M31 5l2 2"/>
    </g>
</svg>
